<svg xmlns="http://www.w3.org/2000/svg" width="80" height="80" viewBox="0 0 512 512" version="1.1"><path d="M 243.836 39.919 C 236.347 42.314, 232.265 44.940, 226.574 51.025 C 220.153 57.889, 216.793 65.546, 216.209 74.644 C 215.758 81.669, 215.840 81.994, 218.795 84.949 C 225.386 91.539, 234.440 87.325, 235.875 77 C 237.130 67.965, 240.929 62.599, 248.232 59.548 C 258.858 55.108, 271.458 60.769, 275.029 71.587 C 276.991 77.531, 275.830 85.407, 272.359 89.695 C 267.874 95.237, 265.169 96.824, 257.510 98.409 C 252.239 99.501, 249.951 100.519, 248.203 102.550 C 245.922 105.202, 245.891 105.562, 246.193 125.211 L 246.500 145.177 249.306 147.589 C 252.314 150.174, 257.636 150.800, 261.055 148.970 C 264.949 146.887, 266 142.801, 266 129.751 L 266 117.402 269.750 116.111 C 275.151 114.251, 283.574 108.325, 287.043 103.945 C 288.687 101.870, 291.262 97.546, 292.766 94.336 C 295.201 89.139, 295.500 87.350, 295.500 78 C 295.500 68.720, 295.191 66.841, 292.840 61.825 C 284.153 43.295, 262.936 33.811, 243.836 39.919 M 250.750 172.080 C 248.453 173.418, 246 178.248, 246 181.435 C 246 182.828, 247.304 185.428, 248.898 187.211 C 251.296 189.895, 252.520 190.455, 256 190.455 C 259.480 190.455, 260.704 189.895, 263.102 187.211 C 264.696 185.428, 266 182.828, 266 181.435 C 266 178.119, 263.481 173.328, 261.055 172.030 C 258.615 170.724, 253.032 170.751, 250.750 172.080 M 25.969 185.536 C 15.420 188.788, 4.646 199.719, 1.479 210.382 C 0.215 214.638, 0 230.397, 0 318.644 C 0 420.863, 0.021 421.982, 2.084 427.495 C 4.712 434.519, 9.201 440.433, 15.545 445.231 C 25.743 452.944, 19.285 452.460, 116.155 452.773 L 202.809 453.053 225.999 479.042 C 238.753 493.336, 250.017 505.474, 251.029 506.015 C 253.370 507.268, 258.600 507.284, 260.914 506.046 C 261.895 505.521, 273.174 493.371, 285.978 479.046 L 309.259 453 393.419 453 C 484.824 453, 483.941 453.049, 493.504 447.445 C 499.567 443.892, 505.745 436.848, 508.651 430.175 C 510.010 427.054, 511.545 423.719, 512.061 422.764 C 513.222 420.616, 513.352 212.665, 512.192 213.382 C 511.747 213.656, 510.876 211.995, 510.256 209.691 C 508.608 203.567, 502.243 195.093, 496.028 190.751 C 486.092 183.810, 488.500 184, 410.537 184 L 340.437 184 334.469 190.111 C 331.186 193.472, 326.322 197.972, 323.660 200.111 L 318.820 204 396.660 204.006 C 447.120 204.009, 475.808 204.374, 478.219 205.044 C 482.710 206.291, 487.460 210.121, 489.786 214.369 C 491.366 217.255, 491.523 225.163, 491.789 315.500 C 491.992 384.272, 491.751 414.821, 490.980 417.929 C 489.478 423.982, 486.471 427.882, 481.599 430.095 C 477.703 431.864, 473.167 431.957, 389.898 431.978 L 302.296 432 299.122 434.250 C 297.377 435.488, 287.140 446.400, 276.373 458.500 C 265.606 470.600, 256.438 480.500, 256 480.500 C 255.562 480.500, 246.394 470.600, 235.627 458.500 C 224.860 446.400, 214.623 435.488, 212.878 434.250 L 209.704 432 122.102 431.978 C 38.205 431.957, 34.323 431.876, 30.316 430.057 C 27.684 428.862, 25.088 426.579, 23.316 423.902 L 20.500 419.647 20.226 320.768 C 20.031 250.152, 20.273 220.700, 21.072 217.731 C 22.494 212.453, 28.306 206.564, 33.523 205.115 C 36.267 204.353, 61.633 204.009, 115.340 204.006 L 193.180 204 188.340 200.111 C 185.678 197.972, 180.814 193.472, 177.531 190.111 L 171.563 184 101.031 184.070 C 43.633 184.126, 29.656 184.399, 25.969 185.536 M 0.482 318.500 C 0.482 376.250, 0.602 399.728, 0.750 370.673 C 0.897 341.619, 0.897 294.369, 0.750 265.673 C 0.602 236.978, 0.482 260.750, 0.482 318.500 M 99 262.523 C 88.300 265.462, 80.962 269.857, 72.470 278.411 C 66.673 284.251, 63.521 288.420, 61.134 293.406 C 52.442 311.561, 53.302 332.071, 63.491 349.620 C 67.963 357.322, 78.431 366.963, 87 371.269 C 104.409 380.019, 122.746 379.997, 140.118 371.205 L 147.735 367.350 152.793 372.175 C 157.175 376.355, 158.407 377, 162.003 377 C 167.839 377, 172 372.845, 172 367.017 C 172 363.434, 171.342 362.185, 167.084 357.682 L 162.168 352.484 165.987 344.653 C 179.068 317.837, 170.133 286.437, 144.723 269.920 C 135.604 263.993, 128.210 261.836, 115.500 261.394 C 107.738 261.124, 102.881 261.457, 99 262.523 M 198.360 262.460 C 194.092 265.450, 193.896 267.627, 194.205 308.565 L 194.500 347.500 197.435 353.500 C 205.515 370.018, 225.394 380.152, 244.050 377.264 C 259.114 374.932, 274.096 363.916, 279.087 351.500 C 281.494 345.513, 281.499 345.415, 281.500 306.169 L 281.500 266.838 278.234 263.919 C 274.766 260.819, 269.670 260.036, 265.945 262.030 C 261.241 264.547, 261.001 266.605, 260.978 304.700 C 260.958 337.449, 260.797 340.849, 259.095 344.599 C 256.048 351.308, 246.177 356.956, 237.500 356.956 C 229.648 356.956, 220.359 351.848, 216.664 345.500 C 215.859 344.117, 215.346 331.672, 215 305.167 L 214.500 266.833 211.234 263.917 C 207.536 260.614, 201.905 259.977, 198.360 262.460 M 320.009 263.837 C 318.126 265.720, 316.954 268.159, 316.525 271.087 C 316.169 273.514, 316.018 296.875, 316.189 323 C 316.427 359.281, 316.802 371.029, 317.780 372.740 C 319.265 375.340, 323.951 378, 327.046 378 C 330.106 378, 334.644 375.078, 335.915 372.288 C 336.650 370.674, 337 353.297, 337 318.376 L 337 266.846 334.077 263.923 C 329.999 259.846, 324.037 259.809, 320.009 263.837 M 378.360 262.460 C 373.541 265.836, 372.858 274.749, 377.122 278.613 C 379.002 280.316, 381.487 280.549, 402.573 281 L 425.941 281.500 398.970 322.882 C 369.257 368.473, 369.433 368.096, 374.918 374.234 L 377.836 377.500 414.500 377.500 L 451.164 377.500 454.082 374.234 C 458.024 369.822, 458.025 365.179, 454.084 360.766 L 451.168 357.500 426.536 357 L 401.904 356.500 428.368 315.879 C 442.922 293.537, 454.921 274.412, 455.031 273.379 C 455.509 268.878, 454.818 266.664, 452.077 263.923 L 449.154 261 414.799 261 C 386.297 261, 380.090 261.249, 378.360 262.460 M 107.694 282.194 C 95.953 283.707, 84.533 292.364, 79.160 303.825 C 76.836 308.784, 76.500 310.761, 76.500 319.500 C 76.500 328.433, 76.800 330.110, 79.307 335.217 C 87.707 352.326, 106.726 360.619, 124.901 355.099 C 128.806 353.913, 132 352.659, 132 352.312 C 132 351.965, 129.525 349.086, 126.500 345.915 C 122.238 341.446, 121 339.446, 121 337.025 C 121 330.425, 125.464 326, 132.121 326 C 134.434 326, 136.544 327.331, 141.065 331.644 L 146.982 337.287 148.716 333.394 C 149.977 330.559, 150.456 326.779, 150.475 319.500 C 150.497 310.730, 150.173 308.802, 147.840 303.825 C 140.611 288.405, 124.955 279.969, 107.694 282.194" stroke="none" fill="#04048c" fill-rule="evenodd"/><path d="M 235.622 6.555 C 214.442 10.763, 196.130 20.226, 180.681 34.947 C 170.423 44.721, 164.087 53.264, 158.022 65.500 C 140.548 100.753, 142.684 140.676, 163.808 173.605 C 168.533 180.971, 182.404 195.554, 192.500 203.769 C 198.938 209.008, 217.570 217.762, 228.500 220.683 C 237.427 223.069, 240.324 223.361, 255.500 223.402 C 270.173 223.442, 273.717 223.131, 281.394 221.124 C 296.128 217.272, 311.408 210.231, 320 203.334 C 329.890 195.397, 343.855 180.524, 348.781 172.684 C 365.385 146.255, 369.988 113.886, 361.369 84.146 C 349.800 44.224, 316.906 14.319, 276.032 6.566 C 265.936 4.650, 245.234 4.645, 235.622 6.555 M 243.836 39.919 C 236.347 42.314, 232.265 44.940, 226.574 51.025 C 220.153 57.889, 216.793 65.546, 216.209 74.644 C 215.758 81.669, 215.840 81.994, 218.795 84.949 C 225.386 91.539, 234.440 87.325, 235.875 77 C 237.130 67.965, 240.929 62.599, 248.232 59.548 C 258.858 55.108, 271.458 60.769, 275.029 71.587 C 276.991 77.531, 275.830 85.407, 272.359 89.695 C 267.874 95.237, 265.169 96.824, 257.510 98.409 C 252.239 99.501, 249.951 100.519, 248.203 102.550 C 245.922 105.202, 245.891 105.562, 246.193 125.211 L 246.500 145.177 249.306 147.589 C 252.314 150.174, 257.636 150.800, 261.055 148.970 C 264.949 146.887, 266 142.801, 266 129.751 L 266 117.402 269.750 116.111 C 275.151 114.251, 283.574 108.325, 287.043 103.945 C 288.687 101.870, 291.262 97.546, 292.766 94.336 C 295.201 89.139, 295.500 87.350, 295.500 78 C 295.500 68.720, 295.191 66.841, 292.840 61.825 C 284.153 43.295, 262.936 33.811, 243.836 39.919 M 250.750 172.080 C 248.453 173.418, 246 178.248, 246 181.435 C 246 182.828, 247.304 185.428, 248.898 187.211 C 251.296 189.895, 252.520 190.455, 256 190.455 C 259.480 190.455, 260.704 189.895, 263.102 187.211 C 264.696 185.428, 266 182.828, 266 181.435 C 266 178.119, 263.481 173.328, 261.055 172.030 C 258.615 170.724, 253.032 170.751, 250.750 172.080" stroke="none" fill="#a3fbc3" fill-rule="evenodd"/></svg>